<svg width="512" height="512" viewBox="0 0 512 512" fill="none" xmlns="http://www.w3.org/2000/svg">
  <defs>
    <!-- Background gradient -->
    <linearGradient id="bgGrad" x1="64" y1="64" x2="448" y2="448" gradientUnits="userSpaceOnUse">
      <stop offset="0" stop-color="#4E8CFF"/>
      <stop offset="1" stop-color="#7BD5F5"/>
    </linearGradient>

    <!-- Subtle white overlay for depth -->
    <linearGradient id="shineGrad" x1="96" y1="96" x2="416" y2="256" gradientUnits="userSpaceOnUse">
      <stop offset="0" stop-color="#FFFFFF" stop-opacity="0.35"/>
      <stop offset="1" stop-color="#FFFFFF" stop-opacity="0"/>
    </linearGradient>
  </defs>

  <!-- Rounded square background -->
  <rect x="48" y="48" width="416" height="416" rx="104" fill="url(#bgGrad)"/>
  <rect x="48" y="48" width="416" height="416" rx="104" fill="url(#shineGrad)"/>

  <!-- Document with folded corner -->
  <g>
    <!-- Main document body -->
    <rect x="150" y="110" width="212" height="276" rx="28" fill="#FFFFFF"/>

    <!-- Folded corner overlay -->
    <path d="M332 110H330C318 110 308 120 308 132V160H336C348 160 358 150 358 138V136L332 110Z"
          fill="#E3F1FF"/>

    <!-- Top-right fold edge -->
    <path d="M332 110L358 136H336C332.7 136 330 133.3 330 130V110H332Z"
          fill="#C9E0FF"/>

    <!-- Colored “lines” inside document (hint of multi-type support) -->
    <rect x="172" y="184" width="168" height="14" rx="7" fill="#4E8CFF" opacity="0.85"/>
    <rect x="172" y="214" width="126" height="12" rx="6" fill="#60C48D" opacity="0.9"/>
    <rect x="172" y="242" width="152" height="12" rx="6" fill="#FFAF59" opacity="0.9"/>
    <rect x="172" y="270" width="104" height="12" rx="6" fill="#9B8CFF" opacity="0.9"/>
    <rect x="172" y="304" width="152" height="10" rx="5" fill="#C4D4F7" opacity="0.9"/>
  </g>

  <!-- “New” plus badge in bottom-right -->
  <g>
    <circle cx="354" cy="346" r="54" fill="#34C759"/>
    <circle cx="354" cy="346" r="48" fill="#E9FBEF"/>
    <path d="M354 314C351.79 314 350 315.79 350 318V340H328C325.79 340 324 341.79 324 344C324 346.21 325.79 348 328 348H350V370C350 372.21 351.79 374 354 374C356.21 374 358 372.21 358 370V348H380C382.21 348 384 346.21 384 344C384 341.79 382.21 340 380 340H358V318C358 315.79 356.21 314 354 314Z"
          fill="#34C759"/>
  </g>
</svg>
